<?xml version="1.0" encoding="utf-8"?>
<!-- Generator: Adobe Illustrator 16.0.0, SVG Export Plug-In . SVG Version: 6.00 Build 0)  -->
<!DOCTYPE svg PUBLIC "-//W3C//DTD SVG 1.1//EN" "http://www.w3.org/Graphics/SVG/1.1/DTD/svg11.dtd">
<svg version="1.1" id="Layer_2" xmlns="http://www.w3.org/2000/svg" xmlns:xlink="http://www.w3.org/1999/xlink" x="0px" y="0px"
	 width="1400px" height="980px" viewBox="0 0 1400 980" enable-background="new 0 0 1400 980" xml:space="preserve">
<rect fill="#B6E0DC" width="1400" height="980"/>
<g id="Airport">
</g>
<g>
	<g>
		<path fill="#333333" d="M349.1,882.7c0,4.6-3.8,8.4-8.4,8.4H122c-4.6,0-8.4-3.8-8.4-8.4V667.5c0-4.6,3.8-8.4,8.4-8.4h218.7
			c4.6,0,8.4,3.8,8.4,8.4V882.7z"/>
		<path fill="#E7E7E9" d="M324.9,724.8c0,4.6-3.8,8.4-8.4,8.4H148.3c-4.6,0-8.4-3.8-8.4-8.4v-32.2c0-4.6,3.8-8.4,8.4-8.4h168.2
			c4.6,0,8.4,3.8,8.4,8.4V724.8z"/>
		<rect x="139.9" y="749.6" fill="#FDC00F" width="28.5" height="20.1"/>
		<rect x="179.6" y="749.6" fill="#FF642E" width="28.5" height="20.1"/>
		<rect x="218.2" y="749.6" fill="#659BC1" width="28.5" height="20.1"/>
		<rect x="257.9" y="749.6" fill="#659BC1" width="28.5" height="20.1"/>
		<rect x="296.4" y="749.6" fill="#659BC1" width="28.5" height="20.1"/>
		<rect x="139.9" y="780.5" fill="#F2F2F2" width="28.5" height="20.1"/>
		<rect x="179.6" y="780.5" fill="#F2F2F2" width="28.5" height="20.1"/>
		<rect x="218.2" y="780.5" fill="#F2F2F2" width="28.5" height="20.1"/>
		<rect x="139.9" y="812.3" fill="#F2F2F2" width="28.5" height="20.1"/>
		<rect x="179.6" y="812.3" fill="#F2F2F2" width="28.5" height="20.1"/>
		<rect x="218.2" y="812.3" fill="#F2F2F2" width="28.5" height="20.1"/>
		<rect x="139.9" y="844.1" fill="#F2F2F2" width="28.5" height="20.1"/>
		<rect x="179.6" y="844.1" fill="#F2F2F2" width="28.5" height="20.1"/>
		<rect x="218.2" y="844.1" fill="#F2F2F2" width="28.5" height="20.1"/>
		<rect x="296.4" y="844.1" fill="#659BC1" width="28.5" height="20.1"/>
		<rect x="257.9" y="780.5" fill="#659BC1" width="28.5" height="20.1"/>
		<rect x="257.9" y="812.3" fill="#659BC1" width="28.5" height="51.9"/>
		<rect x="296.4" y="780.5" fill="#659BC1" width="28.5" height="20.1"/>
		<rect x="296.4" y="812.3" fill="#659BC1" width="28.5" height="20.1"/>
	</g>
	<g>
		<path fill="#FDC00F" d="M74.6,872.2l9.8-9.9c-5.7-6.8-3.8-23.5-3.8-23.5h-7.9h-7.9c0,0,1.9,16.7-3.8,23.5l9.8,9.9v5
			c-0.4,0.4-0.6,1-0.6,1.7c0,1.4,1.1,2.5,2.5,2.5c1.4,0,2.5-1.1,2.5-2.5c0-0.6-0.2-1.2-0.6-1.7V872.2z"/>
		<circle fill="#FFFFFF" cx="72.7" cy="861.5" r="2.5"/>
		<polygon fill="#224D78" points="72.7,742.2 61,742.2 64.8,838.9 72.7,838.9 80.5,838.9 84.4,742.2 		"/>
		<polygon fill="#153C5B" points="85.8,737.3 59.6,737.3 61,742.2 84.4,742.2 		"/>
		<rect x="59.6" y="654.2" fill="#224D78" width="26.1" height="83.2"/>
		<path fill="#153C5B" d="M82.3,640.2H63.1c-1.9,0-3.5,1.6-3.5,3.5v10.5h26.1v-10.5C85.8,641.7,84.2,640.2,82.3,640.2z"/>
		<g>
			<path fill="#FDC00F" d="M92.3,726.6h-3v-62.1c0-5.6-1.4-7.6-2.2-8.3c-0.6-0.6-1.2-0.6-1.2-0.6l-0.2,0H59.6v-3h26.1
				c0.5,0,2,0,3.4,1.3c2.1,1.9,3.2,5.4,3.2,10.5V726.6z"/>
		</g>
	</g>
	<g>
		<path fill="#333333" d="M371.9,500.2v386.2c0,3.9,3.1,7,6.8,7H606c3.8,0,6.8-3.2,6.8-7V496.9C491.5,447.3,371.9,500.2,371.9,500.2
			z"/>
		<path fill="#161616" d="M588,485.2c-96.4-42.8-191.3,3.8-191.3,3.8v347.3H588V485.2z"/>
		<path fill="#E6E6E6" stroke="#000000" stroke-width="2.8347" stroke-miterlimit="10" d="M457.8,708.8c0,4.7-3.7,8.5-8.2,8.5h-18.5
			c-4.5,0-8.2-3.8-8.2-8.5v-5.3c0-4.7,3.7-8.5,8.2-8.5h18.5c4.5,0,8.2,3.8,8.2,8.5V708.8z"/>
		<text transform="matrix(0.9703 0 0 1 436.748 709.3623)" font-family="'Arial-BoldMT'" font-size="13.2054">1</text>
		<path fill="#E6E6E6" stroke="#000000" stroke-width="2.8347" stroke-miterlimit="10" d="M510.1,708.8c0,4.7-3.7,8.5-8.2,8.5h-18.5
			c-4.5,0-8.2-3.8-8.2-8.5v-5.3c0-4.7,3.7-8.5,8.2-8.5h18.5c4.5,0,8.2,3.8,8.2,8.5V708.8z"/>
		<text transform="matrix(0.9703 0 0 1 489.1055 709.3623)" font-family="'Arial-BoldMT'" font-size="13.2054">2</text>
		<path fill="#E6E6E6" stroke="#000000" stroke-width="2.8347" stroke-miterlimit="10" d="M562.8,708.8c0,4.7-3.7,8.5-8.2,8.5h-18.5
			c-4.5,0-8.2-3.8-8.2-8.5v-5.3c0-4.7,3.7-8.5,8.2-8.5h18.5c4.5,0,8.2,3.8,8.2,8.5V708.8z"/>
		<text transform="matrix(0.9703 0 0 1 541.8047 709.3623)" font-family="'Arial-BoldMT'" font-size="13.2054">3</text>
		<path fill="#E6E6E6" stroke="#000000" stroke-width="2.8347" stroke-miterlimit="10" d="M457.8,746.9c0,4.7-3.7,8.5-8.2,8.5h-18.5
			c-4.5,0-8.2-3.8-8.2-8.5v-5.3c0-4.7,3.7-8.5,8.2-8.5h18.5c4.5,0,8.2,3.8,8.2,8.5V746.9z"/>
		<text transform="matrix(0.9703 0 0 1 436.748 747.4531)" font-family="'Arial-BoldMT'" font-size="13.2054">4</text>
		<path fill="#E6E6E6" stroke="#000000" stroke-width="2.8347" stroke-miterlimit="10" d="M510.1,746.9c0,4.7-3.7,8.5-8.2,8.5h-18.5
			c-4.5,0-8.2-3.8-8.2-8.5v-5.3c0-4.7,3.7-8.5,8.2-8.5h18.5c4.5,0,8.2,3.8,8.2,8.5V746.9z"/>
		<text transform="matrix(0.9703 0 0 1 489.1055 747.4531)" font-family="'Arial-BoldMT'" font-size="13.2054">5</text>
		<path fill="#E6E6E6" stroke="#000000" stroke-width="2.8347" stroke-miterlimit="10" d="M562.8,746.9c0,4.7-3.7,8.5-8.2,8.5h-18.5
			c-4.5,0-8.2-3.8-8.2-8.5v-5.3c0-4.7,3.7-8.5,8.2-8.5h18.5c4.5,0,8.2,3.8,8.2,8.5V746.9z"/>
		<text transform="matrix(0.9703 0 0 1 541.8047 747.4531)" font-family="'Arial-BoldMT'" font-size="13.2054">6</text>
		<path fill="#E6E6E6" stroke="#000000" stroke-width="2.8347" stroke-miterlimit="10" d="M457.8,781.8c0,4.7-3.7,8.5-8.2,8.5h-18.5
			c-4.5,0-8.2-3.8-8.2-8.5v-5.3c0-4.7,3.7-8.5,8.2-8.5h18.5c4.5,0,8.2,3.8,8.2,8.5V781.8z"/>
		<text transform="matrix(0.9703 0 0 1 436.748 782.3691)" font-family="'Arial-BoldMT'" font-size="13.2054">7</text>
		<path fill="#E6E6E6" stroke="#000000" stroke-width="2.8347" stroke-miterlimit="10" d="M510.1,781.8c0,4.7-3.7,8.5-8.2,8.5h-18.5
			c-4.5,0-8.2-3.8-8.2-8.5v-5.3c0-4.7,3.7-8.5,8.2-8.5h18.5c4.5,0,8.2,3.8,8.2,8.5V781.8z"/>
		<text transform="matrix(0.9703 0 0 1 489.1055 782.3691)" font-family="'Arial-BoldMT'" font-size="13.2054">8</text>
		<path fill="#E6E6E6" stroke="#000000" stroke-width="2.8347" stroke-miterlimit="10" d="M562.8,781.8c0,4.7-3.7,8.5-8.2,8.5h-18.5
			c-4.5,0-8.2-3.8-8.2-8.5v-5.3c0-4.7,3.7-8.5,8.2-8.5h18.5c4.5,0,8.2,3.8,8.2,8.5V781.8z"/>
		<text transform="matrix(0.9703 0 0 1 541.8047 782.3691)" font-family="'Arial-BoldMT'" font-size="13.2054">9</text>
		<path fill="#E6E6E6" stroke="#000000" stroke-width="2.8347" stroke-miterlimit="10" d="M444.8,801.1c8.4,0,18-1.4,20.7,5.3
			c2.7,6.7,2.7,15.8-8.1,15c-10.7-0.8-43.4-20.3-32.6-20.3C435.5,801.1,444.8,801.1,444.8,801.1z"/>
		<path fill="#E6E6E6" stroke="#000000" stroke-width="2.8347" stroke-miterlimit="10" d="M541.8,801.1c-8.4,0-18-1.4-20.7,5.3
			c-2.7,6.7-2.7,15.8,8.1,15c10.7-0.8,43.4-20.3,32.6-20.3C551.1,801.1,541.8,801.1,541.8,801.1z"/>
		<path fill="#E6E6E6" stroke="#000000" stroke-width="2.8347" stroke-miterlimit="10" d="M492.7,799.8L492.7,799.8L492.7,799.8
			L492.7,799.8L492.7,799.8c-12.2,0-17.5,2.4-14.2,13.5c2.5,8.5,14.1,8.2,14.2,8.2c0,0,11.6,0.3,14.2-8.2
			C510.1,802.1,504.9,799.8,492.7,799.8z"/>
		<path fill="#333333" d="M578.3,681.8c0,3.5-2.8,6.3-6.1,6.3H412.6c-3.4,0-6.1-2.8-6.1-6.3l0,0c0-3.5,2.8-6.3,6.1-6.3h159.6
			C575.6,675.5,578.3,678.3,578.3,681.8L578.3,681.8z"/>
		<rect x="415.4" y="567" fill="#E7E7E9" width="153.4" height="98.2"/>
		<rect x="406.7" y="544.8" fill="#333333" width="170.8" height="10.6"/>
		<rect x="410.7" y="365.3" fill="#E7E7E9" width="163.3" height="179.6"/>
		<rect x="422.1" y="381.4" fill="#CCCCCC" width="139.1" height="4.4"/>
		<rect x="422.1" y="401" fill="#CCCCCC" width="139.1" height="4.4"/>
		<rect x="422.1" y="424.5" fill="#CCCCCC" width="139.1" height="4.4"/>
		<rect x="422.1" y="444" fill="#CCCCCC" width="139.1" height="4.4"/>
		<rect x="422.1" y="469.5" fill="#CCCCCC" width="139.1" height="4.4"/>
		<rect x="422.1" y="489" fill="#CCCCCC" width="139.1" height="4.4"/>
		<rect x="422.1" y="512" fill="#CCCCCC" width="139.1" height="4.4"/>
		<path fill="#161616" d="M579.4,880.6c0,1.1-0.9,2-2,2H407.3c-1.1,0-2-0.9-2-2l0,0c0-1.1,0.9-2,2-2h170.1
			C578.5,878.5,579.4,879.4,579.4,880.6L579.4,880.6z"/>
	</g>
	<g>
		<path fill="#FDC00F" d="M159.6,617.2c0,4.6,3.8,8.4,8.4,8.4h157.2c4.6,0,8.4-3.8,8.4-8.4v-52.2h-174V617.2z"/>
		<path fill="#FDC00F" d="M333.6,522c0-4.6-3.8-8.4-8.4-8.4H168c-4.6,0-8.4,3.8-8.4,8.4v17.7h174V522z"/>
		<rect x="159.6" y="539.8" fill="#005679" width="174" height="25.1"/>
		<rect x="176" y="577.2" fill="#FFFFFF" width="141.2" height="11"/>
		<g>
			<line fill="#005679" x1="252.4" y1="582.7" x2="256.9" y2="582.7"/>
			<path fill="#005679" d="M256.9,583.7h-4.5c-0.5,0-1-0.4-1-1c0-0.5,0.4-1,1-1h4.5c0.5,0,1,0.4,1,1
				C257.9,583.3,257.4,583.7,256.9,583.7z"/>
		</g>
		<g>
			<line fill="#005679" x1="296.9" y1="582.7" x2="310.1" y2="582.7"/>
			<path fill="#005679" d="M310.1,583.7h-13.2c-0.5,0-1-0.4-1-1c0-0.5,0.4-1,1-1h13.2c0.5,0,1,0.4,1,1
				C311.1,583.3,310.7,583.7,310.1,583.7z"/>
		</g>
		<g>
			<line fill="#005679" x1="261.6" y1="582.7" x2="291.6" y2="582.7"/>
			<path fill="#005679" d="M291.6,583.7h-30c-0.5,0-1-0.4-1-1c0-0.5,0.4-1,1-1h30c0.5,0,1,0.4,1,1
				C292.6,583.3,292.2,583.7,291.6,583.7z"/>
		</g>
	</g>
	<g>
		
			<rect x="774.5" y="137.3" transform="matrix(0.9931 0.1174 -0.1174 0.9931 68.1229 -117.9936)" fill="#CCCCCC" width="522.9" height="764.3"/>
		<path fill="#DE8E1D" d="M1315.9,579.9l-66.9-51.8V109.6c0-7.7-6.3-14-14-14H694.3v801.9H1249h63.9c7.7,0,14-6.3,14-14V602.4
			C1326.9,594.7,1322,584.6,1315.9,579.9z"/>
		<rect x="715.7" y="50.4" fill="#E6E6E6" width="522.9" height="764.3"/>
		<rect x="694.3" y="133.3" fill="#FFFFFF" width="522.9" height="764.3"/>
		<path fill="#FAC841" d="M1234.4,452.7l-66.9-51.8V109.6c0-7.7-6.3-14-14-14H694.3v801.9h473.2h63.9c7.7,0,14-6.3,14-14V475.2
			C1245.4,467.5,1240.5,457.4,1234.4,452.7z"/>
		<rect x="685.4" y="95.6" fill="#C47312" width="8.9" height="801.9"/>
		<rect x="664.5" y="95.6" fill="#C47312" width="8.9" height="801.9"/>
		<rect x="673.4" y="95.6" fill="#FAC841" width="12" height="801.9"/>
		<rect x="1261.9" y="619.8" fill="#FFFFFF" width="49.4" height="231.1"/>
	</g>
	<g>
		<rect x="172.7" y="133.3" fill="#2CB649" width="310.4" height="156.6"/>
		<path fill="#8DE881" d="M459.1,241.5v-59.1c-13.6,0-24.5-11-24.5-24.6c0-0.3,0-0.5,0-0.7H221.2c0,0.3,0,0.5,0,0.7
			c0,13.6-11,24.6-24.5,24.6v59.1c13.6,0,24.5,11,24.5,24.6h213.3C434.5,252.5,445.5,241.5,459.1,241.5z"/>
		<path fill="#2CB649" d="M374.4,211.5c0,25.7-20.8,46.5-46.5,46.5c-25.7,0-46.5-20.8-46.5-46.5c0-25.7,20.8-46.5,46.5-46.5
			C353.6,165.1,374.4,185.9,374.4,211.5z"/>
		<g>
			<circle fill="#2CB649" cx="420" cy="211.5" r="12.2"/>
			<circle fill="#2CB649" cx="235.7" cy="211.5" r="12.2"/>
		</g>
		<g>
			<path fill="#8DE881" d="M325.1,230.2v-16.6c-5.2-1.5-9-3.7-11.4-6.7c-2.4-3-3.6-6.6-3.6-10.9c0-4.3,1.4-8,4.1-10.9
				c2.7-2.9,6.4-4.6,10.9-5.1v-3.9h5.7v3.9c4.2,0.5,7.5,1.9,10,4.3c2.5,2.4,4.1,5.5,4.8,9.5l-10,1.3c-0.6-3.1-2.2-5.2-4.7-6.3v15.5
				c6.3,1.7,10.6,3.9,12.9,6.7c2.3,2.7,3.4,6.2,3.4,10.5c0,4.8-1.4,8.8-4.3,12.1c-2.9,3.3-6.9,5.3-12,6v7.4h-5.7v-7.2
				c-4.6-0.6-8.3-2.3-11.1-5.1c-2.8-2.8-4.7-6.9-5.5-12.1l10.3-1.1c0.4,2.1,1.2,3.9,2.4,5.5C322.4,228.4,323.7,229.6,325.1,230.2z
				 M325.1,188.7c-1.6,0.5-2.8,1.4-3.7,2.7c-0.9,1.3-1.4,2.7-1.4,4.2c0,1.4,0.4,2.7,1.3,3.9c0.8,1.2,2.1,2.2,3.8,2.9V188.7z
				 M330.9,230.8c2-0.4,3.6-1.3,4.8-2.8c1.2-1.5,1.9-3.2,1.9-5.2c0-1.8-0.5-3.3-1.6-4.6c-1-1.3-2.8-2.3-5.1-2.9V230.8z"/>
		</g>
	</g>
	<g>
		<rect x="240.3" y="133.3" fill="#2CB649" width="310.4" height="156.6"/>
		<path fill="#8DE881" d="M526.8,241.5v-59.1c-13.6,0-24.6-11-24.6-24.6c0-0.3,0-0.5,0-0.7H288.8c0,0.3,0,0.5,0,0.7
			c0,13.6-11,24.6-24.5,24.6v59.1c13.6,0,24.5,11,24.5,24.6h213.3C502.2,252.5,513.2,241.5,526.8,241.5z"/>
		<path fill="#2CB649" d="M442,211.5c0,25.7-20.8,46.5-46.5,46.5c-25.7,0-46.5-20.8-46.5-46.5c0-25.7,20.8-46.5,46.5-46.5
			C421.2,165.1,442,185.9,442,211.5z"/>
		<g>
			<circle fill="#2CB649" cx="487.7" cy="211.5" r="12.2"/>
			<circle fill="#2CB649" cx="303.4" cy="211.5" r="12.2"/>
		</g>
		<g>
			<path fill="#8DE881" d="M392.8,230.2v-16.6c-5.2-1.5-9-3.7-11.4-6.7c-2.4-3-3.6-6.6-3.6-10.9c0-4.3,1.4-8,4.1-10.9
				c2.7-2.9,6.4-4.6,10.9-5.1v-3.9h5.7v3.9c4.2,0.5,7.5,1.9,10,4.3c2.5,2.4,4.1,5.5,4.8,9.5l-10,1.3c-0.6-3.1-2.2-5.2-4.7-6.3v15.5
				c6.3,1.7,10.6,3.9,12.9,6.7c2.3,2.7,3.4,6.2,3.4,10.5c0,4.8-1.4,8.8-4.3,12.1c-2.9,3.3-6.9,5.3-12,6v7.4h-5.7v-7.2
				c-4.6-0.6-8.3-2.3-11.1-5.1c-2.8-2.8-4.7-6.9-5.5-12.1l10.3-1.1c0.4,2.1,1.2,3.9,2.4,5.5C390.1,228.4,391.4,229.6,392.8,230.2z
				 M392.8,188.7c-1.6,0.5-2.8,1.4-3.7,2.7c-0.9,1.3-1.4,2.7-1.4,4.2c0,1.4,0.4,2.7,1.3,3.9c0.8,1.2,2.1,2.2,3.8,2.9V188.7z
				 M398.5,230.8c2-0.4,3.6-1.3,4.8-2.8c1.2-1.5,1.9-3.2,1.9-5.2c0-1.8-0.5-3.3-1.6-4.6c-1-1.3-2.8-2.3-5.1-2.9V230.8z"/>
		</g>
	</g>
	<g>
		<rect x="308" y="133.3" fill="#2CB649" width="310.4" height="156.6"/>
		<path fill="#8DE881" d="M594.4,241.5v-59.1c-13.6,0-24.6-11-24.6-24.6c0-0.3,0-0.5,0-0.7H356.5c0,0.3,0,0.5,0,0.7
			c0,13.6-11,24.6-24.5,24.6v59.1c13.6,0,24.5,11,24.5,24.6h213.3C569.9,252.5,580.8,241.5,594.4,241.5z"/>
		<path fill="#2CB649" d="M509.7,211.5c0,25.7-20.8,46.5-46.5,46.5c-25.7,0-46.5-20.8-46.5-46.5c0-25.7,20.8-46.5,46.5-46.5
			C488.9,165.1,509.7,185.9,509.7,211.5z"/>
		<g>
			<circle fill="#2CB649" cx="555.4" cy="211.5" r="12.2"/>
			<circle fill="#2CB649" cx="371" cy="211.5" r="12.2"/>
		</g>
		<g>
			<path fill="#8DE881" d="M460.4,230.2v-16.6c-5.2-1.5-9-3.7-11.4-6.7c-2.4-3-3.6-6.6-3.6-10.9c0-4.3,1.4-8,4.1-10.9
				c2.7-2.9,6.4-4.6,10.9-5.1v-3.9h5.7v3.9c4.2,0.5,7.5,1.9,10,4.3c2.5,2.4,4.1,5.5,4.8,9.5l-10,1.3c-0.6-3.1-2.2-5.2-4.7-6.3v15.5
				c6.3,1.7,10.6,3.9,12.9,6.7c2.3,2.7,3.4,6.2,3.4,10.5c0,4.8-1.4,8.8-4.3,12.1c-2.9,3.3-6.9,5.3-12,6v7.4h-5.7v-7.2
				c-4.6-0.6-8.3-2.3-11.1-5.1c-2.8-2.8-4.7-6.9-5.5-12.1l10.3-1.1c0.4,2.1,1.2,3.9,2.4,5.5C457.7,228.4,459,229.6,460.4,230.2z
				 M460.4,188.7c-1.6,0.5-2.8,1.4-3.7,2.7c-0.9,1.3-1.4,2.7-1.4,4.2c0,1.4,0.4,2.7,1.3,3.9c0.8,1.2,2.1,2.2,3.8,2.9V188.7z
				 M466.2,230.8c2-0.4,3.6-1.3,4.8-2.8c1.2-1.5,1.9-3.2,1.9-5.2c0-1.8-0.5-3.3-1.6-4.6c-1-1.3-2.8-2.3-5.1-2.9V230.8z"/>
		</g>
	</g>
	<g>
		<path fill="#FDC00F" d="M291.4,369.5c0,30.8-24.9,55.7-55.7,55.7H220l-40-55.7l40-55.7h15.7C266.4,313.8,291.4,338.7,291.4,369.5z
			"/>
		<circle fill="#F99B1D" cx="222.6" cy="369.5" r="55.7"/>
		<circle fill="#FDC00F" cx="222.6" cy="369.5" r="45.6"/>
		<g>
			<path fill="#FFFFFF" d="M220.1,386.6v-15.2c-4.7-1.4-8.2-3.4-10.4-6.1c-2.2-2.7-3.3-6.1-3.3-10c0-4,1.3-7.3,3.8-10
				c2.5-2.7,5.8-4.3,10-4.7V337h5.3v3.6c3.8,0.5,6.9,1.8,9.2,3.9c2.3,2.2,3.7,5.1,4.4,8.7l-9.2,1.2c-0.6-2.9-2-4.8-4.4-5.8v14.2
				c5.8,1.6,9.8,3.6,11.9,6.1c2.1,2.5,3.2,5.7,3.2,9.6c0,4.4-1.3,8.1-4,11.1c-2.6,3-6.3,4.8-11,5.5v6.8h-5.3v-6.6
				c-4.2-0.5-7.6-2.1-10.2-4.7c-2.6-2.6-4.3-6.3-5-11.1l9.5-1c0.4,1.9,1.1,3.6,2.2,5C217.6,385,218.8,386,220.1,386.6z M220.1,348.5
				c-1.4,0.5-2.6,1.3-3.4,2.5c-0.8,1.2-1.3,2.4-1.3,3.8c0,1.3,0.4,2.5,1.2,3.6c0.8,1.1,1.9,2,3.5,2.7V348.5z M225.3,387.1
				c1.8-0.3,3.3-1.2,4.4-2.5c1.1-1.3,1.7-2.9,1.7-4.7c0-1.6-0.5-3-1.4-4.2c-1-1.2-2.5-2.1-4.7-2.7V387.1z"/>
		</g>
	</g>
	<g>
		<path fill="#FDC00F" d="M376.2,369.5c0,30.8-24.9,55.7-55.7,55.7h-15.7l-40-55.7l40-55.7h15.7
			C351.3,313.8,376.2,338.7,376.2,369.5z"/>
		<circle fill="#F99B1D" cx="307.5" cy="369.5" r="55.7"/>
		<circle fill="#FDC00F" cx="307.5" cy="369.5" r="45.6"/>
		<g>
			<path fill="#FFFFFF" d="M304.9,386.6v-15.2c-4.7-1.4-8.2-3.4-10.4-6.1c-2.2-2.7-3.3-6.1-3.3-10c0-4,1.3-7.3,3.8-10
				c2.5-2.7,5.8-4.3,10-4.7V337h5.3v3.6c3.8,0.5,6.9,1.8,9.2,3.9c2.3,2.2,3.7,5.1,4.4,8.7l-9.2,1.2c-0.6-2.9-2-4.8-4.4-5.8v14.2
				c5.8,1.6,9.8,3.6,11.9,6.1c2.1,2.5,3.2,5.7,3.2,9.6c0,4.4-1.3,8.1-4,11.1c-2.6,3-6.3,4.8-11,5.5v6.8h-5.3v-6.6
				c-4.2-0.5-7.6-2.1-10.2-4.7c-2.6-2.6-4.3-6.3-5-11.1l9.5-1c0.4,1.9,1.1,3.6,2.2,5C302.4,385,303.6,386,304.9,386.6z M304.9,348.5
				c-1.4,0.5-2.6,1.3-3.4,2.5c-0.8,1.2-1.3,2.4-1.3,3.8c0,1.3,0.4,2.5,1.2,3.6c0.8,1.1,1.9,2,3.5,2.7V348.5z M310.2,387.1
				c1.8-0.3,3.3-1.2,4.4-2.5c1.1-1.3,1.7-2.9,1.7-4.7c0-1.6-0.5-3-1.4-4.2c-1-1.2-2.5-2.1-4.7-2.7V387.1z"/>
		</g>
	</g>
</g>
</svg>
